<svg xmlns="http://www.w3.org/2000/svg" width="192" height="192" viewBox="0 0 512 512">
  <defs>
    <linearGradient id="bg2" x1="0" y1="0" x2="0.5" y2="1">
      <stop offset="0%" stop-color="#2E7D57"/>
      <stop offset="100%" stop-color="#245F44"/>
    </linearGradient>
  </defs>
  <rect width="512" height="512" rx="110" fill="url(#bg2)"/>
  <g transform="translate(380,80) rotate(25)" opacity="0.12" fill="#F5E9C8">
    <circle cx="0" cy="0" r="14"/><circle cx="-16" cy="-18" r="6"/><circle cx="-6" cy="-22" r="5.5"/><circle cx="6" cy="-22" r="5.5"/><circle cx="16" cy="-18" r="6"/>
  </g>
  <g transform="translate(120,420) rotate(-15)" opacity="0.1" fill="#F5E9C8">
    <circle cx="0" cy="0" r="12"/><circle cx="-14" cy="-16" r="5"/><circle cx="-5" cy="-19" r="4.5"/><circle cx="5" cy="-19" r="4.5"/><circle cx="14" cy="-16" r="5"/>
  </g>
  <g transform="translate(256,160)" fill="#F5E9C8">
    <ellipse cx="0" cy="0" rx="32" ry="22"/>
    <ellipse cx="-28" cy="-16" rx="18" ry="15"/>
    <circle cx="-38" cy="-28" r="5" opacity="0.8"/>
    <circle cx="-30" cy="-31" r="4.5" opacity="0.8"/>
    <circle cx="-22" cy="-29" r="4" opacity="0.8"/>
    <circle cx="-34" cy="-16" r="5.5" fill="#2E7D57"/>
    <circle cx="-35" cy="-17" r="2.8" fill="#E09C2A"/>
    <circle cx="-35.5" cy="-17.5" r="1.2" fill="#3B2A20"/>
    <path d="M30,-3 Q52,-10 58,8 Q62,25 50,32 Q40,36 42,24 Q44,15 36,8" stroke="#F5E9C8" stroke-width="7" stroke-linecap="round" fill="none"/>
    <circle cx="-5" cy="-3" r="4" fill="#E09C2A" opacity="0.3"/>
    <circle cx="12" cy="2" r="5" fill="#E09C2A" opacity="0.25"/>
  </g>
  <text x="256" y="280" text-anchor="middle" font-family="'Nunito','Segoe UI',sans-serif" font-weight="900" font-size="88" fill="#F5E9C8" letter-spacing="6">MYCRE</text>
  <line x1="160" y1="305" x2="352" y2="305" stroke="#F5E9C8" stroke-width="1.5" opacity="0.3"/>
  <text x="256" y="345" text-anchor="middle" font-family="'DM Mono','Consolas',monospace" font-weight="400" font-size="20" fill="#F5E9C8" opacity="0.55" letter-spacing="6">CRESTIE KEEPER</text>
  <text x="256" y="400" text-anchor="middle" font-family="'Pretendard','Segoe UI',sans-serif" font-weight="700" font-size="28" fill="#E09C2A" opacity="0.7">크레스티드 게코 전용</text>
</svg>
